<?xml version="1.0" encoding="utf-8"?>
<!-- Generator: Adobe Illustrator 25.0.0, SVG Export Plug-In . SVG Version: 6.00 Build 0)  -->
<svg version="1.1" id="Слой_1" xmlns="http://www.w3.org/2000/svg" xmlns:xlink="http://www.w3.org/1999/xlink" x="0px" y="0px"
	 viewBox="0 0 800 800" style="enable-background:new 0 0 800 800;" xml:space="preserve">
<style type="text/css">
	.st0{clip-path:url(#SVGID_2_);}
	.st1{fill:none;stroke:#000000;stroke-width:83.3333;stroke-linejoin:round;stroke-miterlimit:133.3333;}
</style>
<g>
	<defs>
		<rect id="SVGID_1_" width="800" height="800"/>
	</defs>
	<clipPath id="SVGID_2_">
		<use xlink:href="#SVGID_1_"  style="overflow:visible;"/>
	</clipPath>
	<g class="st0">
		<path class="st1" d="M166.7,233.3c0-36.8,29.8-66.7,66.7-66.7h33.3c36.8,0,66.7,29.8,66.7,66.7v333.3c0,36.8-29.8,66.7-66.7,66.7
			h-33.3c-36.8,0-66.7-29.8-66.7-66.7V233.3z"/>
		<path class="st1" d="M466.7,233.3c0-36.8,29.8-66.7,66.7-66.7h33.3c36.8,0,66.7,29.8,66.7,66.7v333.3c0,36.8-29.8,66.7-66.7,66.7
			h-33.3c-36.8,0-66.7-29.8-66.7-66.7V233.3z"/>
	</g>
</g>
</svg>
